<svg xmlns="http://www.w3.org/2000/svg" xmlns:xlink="http://www.w3.org/1999/xlink" viewBox="0 0 500 500"><defs><clipPath id="freepik--clip-path--inject-6"><rect x="155.14" y="85.59" width="189.09" height="369" rx="14.52" style="fill:#263238;stroke:#263238;stroke-linecap:round;stroke-linejoin:round"></rect></clipPath><clipPath id="freepik--clip-path-2--inject-6"><path d="M438.67,153.27H237.31V213a76.14,76.14,0,1,0,70.75,121H438.67Z" style="fill:none"></path></clipPath><clipPath id="freepik--clip-path-3--inject-6"><path d="M164,363s21.08-73.4,25.06-89.09,10-25.9,22.42-28.39,35.35-4.8,35.35-4.8,19.93-2,34.37-1,27.65,8.72,34.62,14,27.15,23.41,27.15,23.41l-2.49-41.84,18.18,1.49s13.2,58.28,14.94,69,1.75,15.45,0,16.69,1.25,2-14.69-3.24-34.62-12.45-44.83-15.44-11.46-3.49-11.46-3.49-25,37.62-32.95,48.83a193.42,193.42,0,0,0-14.52,25" style="fill:#fff;stroke:#263238;stroke-linecap:round;stroke-linejoin:round"></path></clipPath><clipPath id="freepik--clip-path-4--inject-6"><path d="M262.74,218.53S258.51,231.48,255,236s-5,5.23-6.22,15.69,4.23,34.12,6,33.62,18.93-27.89,24.66-32.38,11.71-9.21,11.71-9.21-13.95-4.24-18.68-10.21A133.4,133.4,0,0,1,262.74,218.53Z" style="fill:#fff;stroke:#263238;stroke-linecap:round;stroke-linejoin:round"></path></clipPath><clipPath id="freepik--clip-path-5--inject-6"><path d="M315.79,185.41s-.74,16.69-.25,22.16,2.49,15-2,23.91-8.22,14.7-12.45,16.19-17.93-1.49-28.89-9.71-12.95-25.15-14.7-30.63.25-24.16,11.46-30.14a39.55,39.55,0,0,1,29.39-2.74C304.34,176.44,315.79,185.41,315.79,185.41Z" style="fill:#fff;stroke:#263238;stroke-linecap:round;stroke-linejoin:round"></path></clipPath><clipPath id="freepik--clip-path-6--inject-6"><path d="M259.26,214.05s2.24-9.71,7.72-13.2,10.71-2.74,7.47-7.47-5-9.47,2-11.71,20.67,1.5,28.64,4.49,23.41,4,27.4-7.23c2.46-6.92-4.74-12.43-10-15.26-5.83-3.12-12.37-4.67-18.95-3.51-4,.69-7.81,2.26-11.81,2.66-6.77.69-12.74-2.45-19.49-.82a26.84,26.84,0,0,0-14.45,9C251.54,178.68,249.79,192.63,259.26,214.05Z" style="fill:#263238;stroke:#263238;stroke-linecap:round;stroke-linejoin:round"></path></clipPath><clipPath id="freepik--clip-path-7--inject-6"><path d="M223.63,258.08l18.28,57.09s42-24.46,51.84-37.22,15.52-27.15,19-28.5,15.76,2,17.56,4,1.38,4.19-.8,6.25-3.42,2.35-3.42,2.35-.11,4.49-1.09,5.27-.75-.23-1,.77a7.77,7.77,0,0,1-1.15,3c-.72,1-1,1.52-1.69,1.79a22.92,22.92,0,0,1-4.45,1.38,58.62,58.62,0,0,1-8.18,1.5c-1.73.3-13,22.57-23.58,35.84s-44,43.7-49.25,43.86-36.09-50.78-42.7-63.29" style="fill:#fff;stroke:#263238;stroke-linecap:round;stroke-linejoin:round"></path></clipPath><clipPath id="freepik--clip-path-8--inject-6"><path d="M316.71,274.24a22.92,22.92,0,0,0,4.45-1.38c.74-.27,1-.77,1.69-1.79a7.77,7.77,0,0,0,1.15-3c.22-1,.87-1.34,1.84-2.12s.22-3.92.22-3.92,1.24-.29,3.42-2.35,2.61-4.31.8-6.25-14.11-5.3-17.56-4S304.05,264,295,276.33l8.42,6.9c2.64-4.4,4.52-7.38,5.14-7.49A58.62,58.62,0,0,0,316.71,274.24Z" style="fill:#fff;stroke:#263238;stroke-linecap:round;stroke-linejoin:round"></path></clipPath></defs><g id="freepik--background-simple--inject-6"><path d="M35.51,215.39s-8.29,80,50.8,146.34,150.48,88.55,224.2,108.51,136.62-10.71,153.94-72.7-37-92.1-57.92-170.82S391.59,124.71,332.41,67s-165-50.81-229,14.87S35.51,215.39,35.51,215.39Z" style="fill:#FDF008"></path><path d="M35.51,215.39s-8.29,80,50.8,146.34,150.48,88.55,224.2,108.51,136.62-10.71,153.94-72.7-37-92.1-57.92-170.82S391.59,124.71,332.41,67s-165-50.81-229,14.87S35.51,215.39,35.51,215.39Z" style="fill:#fff;opacity:0.7000000000000001"></path></g></svg>